<svg width="1024" height="1024" viewBox="0 0 1024 1024" fill="none" xmlns="http://www.w3.org/2000/svg">
<rect width="1024" height="1024" fill="white"/>
<path d="M784.843 246.515C784.843 290.983 748.795 327.03 704.328 327.03C659.861 327.03 623.813 290.983 623.813 246.515C623.813 202.048 659.861 166 704.328 166C748.795 166 784.843 202.048 784.843 246.515Z" fill="#FF5400"/>
<path d="M513.887 267.555H292.806C292.806 329.315 342.872 379.382 404.632 379.382H496.33C511.153 379.382 523.169 391.398 523.169 406.22V455.424C523.169 490.01 495.131 518.047 460.546 518.047H333.063C270.068 518.047 219 569.115 219 632.11H469.492C499.137 632.11 523.169 656.142 523.169 685.787V748.41C523.169 808.935 572.234 858 632.759 858C632.759 858 643.941 696.97 623.813 632.11C617.883 613.005 590.265 585.143 590.265 585.143C590.265 585.143 583.555 580.67 590.265 571.724C596.974 562.777 605.92 549.358 614.867 533.703C623.813 518.047 626.959 506.87 632.759 488.972C640.511 465.049 642.121 425.329 641.239 386.084C639.713 318.25 581.738 267.555 513.887 267.555Z" fill="#03045E"/>
</svg>
